<svg xmlns="http://www.w3.org/2000/svg" width="161.357" height="38" viewBox="0 0 161.357 38" class="siteHeader__logo">
  <g id="Group_2154" data-name="Group 2154" transform="translate(-151.176 -2275.57)">
    <path id="Path_471" data-name="Path 471" d="M151.176,2322.618l3.076-2.139a5.788,5.788,0,0,0,5.034,2.4c2.274,0,3.3-.754,3.3-2,0-1.513-1.382-1.736-4.544-2.631-2.764-.754-5.527-2.048-5.527-5.749,0-3.74,2.988-5.527,6.686-5.527a8.491,8.491,0,0,1,6.508,2.81l-2.627,2.587a5.054,5.054,0,0,0-3.881-1.829c-1.694,0-2.628.624-2.628,1.738,0,1.427,1.155,1.735,4.1,2.5s6.147,1.915,6.147,5.884c0,3.207-1.959,5.836-7.263,5.836-4.279,0-7.13-1.869-8.379-3.876" transform="translate(0 -12.972)" fill="#141c36"></path>
    <path id="Path_472" data-name="Path 472" d="M181.265,2319.087v-11h4.443v10.643c0,2.639,1.23,4.181,3.825,4.181,2.9,0,4.7-1.806,4.7-4.8v-10.027h4.442v18.473h-4.442l.068-2.6a7.029,7.029,0,0,1-6.183,2.989c-4.044,0-6.859-2.858-6.859-7.87" transform="translate(-12.43 -13.434)" fill="#141c36"></path>
    <path id="Path_473" data-name="Path 473" d="M216.744,2307.813h4.442l-.087,3.168a6.022,6.022,0,0,1,5.5-3.563,5.46,5.46,0,0,1,5.411,3.52,7.4,7.4,0,0,1,6.333-3.52c4.353,0,6.945,2.9,6.945,7.608v11.259h-4.442v-10.82c0-2.548-.923-3.956-3.473-3.956-2.592,0-4.134,1.583-4.134,4.661v10.115H228.8v-10.82c0-2.548-.881-3.956-3.432-3.956-2.638,0-4.178,1.583-4.178,4.661v10.115h-4.442Z" transform="translate(-27.086 -13.156)" fill="#141c36"></path>
    <path id="Path_474" data-name="Path 474" d="M289.121,2317.05a9.968,9.968,0,1,1,9.984,9.629,9.657,9.657,0,0,1-9.984-9.629m15.348,0c0-3.387-2.067-5.763-5.364-5.763s-5.412,2.376-5.412,5.763,2.113,5.8,5.412,5.8,5.364-2.42,5.364-5.8" transform="translate(-56.984 -13.156)" fill="#141c36"></path>
    <path id="Path_475" data-name="Path 475" d="M355.489,2311.111a6.031,6.031,0,0,0-4.834,2.2l-2.552-2.594c1.625-1.934,3.824-3.3,7.74-3.3,4.443,0,7.782,2.5,7.782,7.961v10.906h-4.438l.1-2.086a6.926,6.926,0,0,1-5.776,2.48c-3.65,0-6.64-1.715-6.64-5.847,0-3.828,3.077-5.5,7.253-5.538h5.063c0-2.949-1.324-4.182-3.7-4.182m-1.054,7.258c-1.932,0-3.21.7-3.21,2.328,0,1.589,1.231,2.418,3.517,2.418,2.591,0,4.445-1.273,4.445-3.294v-1.451Z" transform="translate(-80.841 -13.156)" fill="#141c36"></path>
    <rect id="Rectangle_1708" data-name="Rectangle 1708" width="4.442" height="27.205" transform="translate(286.096 2285.925)" fill="#141c36"></rect>
    <path id="Path_476" data-name="Path 476" d="M280.4,2322.76h-3.516c-3.476,0-5.85-1.762-5.85-6.688v-18.254h4.445v6.029H280.4v3.737h-4.922v8.177c0,2.109.7,2.724,1.845,2.724H280.4Z" transform="translate(-49.511 -9.19)" fill="#141c36"></path>
    <path id="Path_477" data-name="Path 477" d="M336.638,2322.76h-3.518c-3.473,0-5.85-1.762-5.85-6.688v-18.254h4.442v6.029h4.927v3.737h-4.927v8.177c0,2.109.7,2.724,1.848,2.724h3.078Z" transform="translate(-72.744 -9.19)" fill="#141c36"></path>
    <path id="Path_478" data-name="Path 478" d="M393.292,2278.382v4.2l2.8,2.8v-8.4a1.408,1.408,0,0,0-1.4-1.408h-8.405l2.815,2.813Z" transform="translate(-97.121 0)" fill="#141c36"></path>
    <path id="Path_479" data-name="Path 479" d="M416.4,2286.082v4.2l2.8,2.8v-8.4a1.413,1.413,0,0,0-1.406-1.409h-8.407l2.814,2.814Z" transform="translate(-106.665 -3.18)" fill="#141c36"></path>
    <path id="Path_480" data-name="Path 480" d="M402.964,2300.438v4.2l2.8,2.8v-8.406a1.408,1.408,0,0,0-1.406-1.4h-8.405l2.815,2.809Z" transform="translate(-101.116 -9.112)" fill="#141c36"></path>
    <path id="Path_481" data-name="Path 481" d="M390.7,2334.283a2.1,2.1,0,0,1,.174-.853,2.216,2.216,0,0,1,1.169-1.169,2.182,2.182,0,0,1,1.7,0,2.271,2.271,0,0,1,.7.472,2.243,2.243,0,0,1,.471.7,2.171,2.171,0,0,1,0,1.7,2.21,2.21,0,0,1-1.168,1.167,2.168,2.168,0,0,1-1.7,0,2.227,2.227,0,0,1-.7-.471,2.273,2.273,0,0,1-.471-.7,2.107,2.107,0,0,1-.174-.852m.389,0a1.758,1.758,0,0,0,.142.7,1.848,1.848,0,0,0,.387.576,1.819,1.819,0,0,0,.575.386,1.8,1.8,0,0,0,1.4,0,1.778,1.778,0,0,0,.962-.962,1.8,1.8,0,0,0,0-1.4,1.826,1.826,0,0,0-.385-.577,1.874,1.874,0,0,0-.577-.386,1.8,1.8,0,0,0-1.4,0,1.792,1.792,0,0,0-.962.963,1.754,1.754,0,0,0-.142.7m.963-1.27h.967a.971.971,0,0,1,.67.2.716.716,0,0,1,.215.559.654.654,0,0,1-.17.495.7.7,0,0,1-.425.195l.648,1.063h-.483l-.626-1.025h-.336v1.025h-.46Zm.46,1.093h.336c.072,0,.141,0,.212-.009a.625.625,0,0,0,.191-.044.324.324,0,0,0,.139-.105.32.32,0,0,0,.054-.194.315.315,0,0,0-.054-.194.319.319,0,0,0-.139-.109.585.585,0,0,0-.191-.039c-.072-.006-.141-.007-.212-.007h-.336Z" transform="translate(-98.945 -23.347)" fill="#141c36"></path>
  </g>
</svg>